<?xml version="1.0" encoding="utf-8"?>
<!-- Generator: Adobe Illustrator 22.1.0, SVG Export Plug-In . SVG Version: 6.0Build 0)  -->
<svg version="1.1" id="Layer_1" xmlns="http://www.w3.org/2000/svg" xmlns:xlink="http://www.w3.org/1999/xlink" x="0px" y="0px"
	 viewBox="0 0 1678.8 554" style="enable-background:new 0 0 1678.8 554;" xml:space="preserve">
<style type="text/css">
	.st0{fill:#3F5A7C;}
	.st1{fill:none;}
	.st2{fill:#5FCCB9;}
	.st3{fill:#87DB90;}
	.st4{fill:#58467F;}
	.st5{fill:#3772BF;}
	.st6{fill:none;stroke:#000000;stroke-miterlimit:10;}
</style>
<path class="st0" d="M435.2,170.5L333,448.6c-0.9,2.3-3.1,3.9-5.6,3.9h-74.7c-6.5,0-10.9-6.4-8.7-12.5l94.9-260.7
	c1.6-4.4,5.5-7.4,10.1-7.9l80.7-8.1C433.6,162.9,436.6,166.8,435.2,170.5z"/>
<path class="st1" d="M138.4,324.9c-6-5-12.2-10.6-18.5-16.7c-7.8,11.6-14.4,23.5-19.6,35.8c-12.1,28.1-15.4,53.3-0.9,64.9
	c22.3,14.9,56.7,13.5,84.8,8.8c-6.1-21.1-10.6-44.3-13.5-68.7C159.3,341.3,148.5,333.3,138.4,324.9z"/>
<path class="st1" d="M237.1,386.7c-13.1-6.3-25.9-13.1-38.2-20.2c2.8,16.1,6.7,31.3,11.5,45.6c15.1-4,30.9-9.5,46.9-16.2
	C250.5,393,243.8,389.9,237.1,386.7z"/>
<path class="st1" d="M220.9,438.2c5,10.7,10.6,20.7,17,30.1c17.1,25.3,36.6,41.7,54.2,35.6c28.2-12.4,47-49.9,57.7-78.3
	c-18.3-3.8-37.2-9-56.4-15.7C268.7,422,244.2,431.6,220.9,438.2z"/>
<path class="st1" d="M324.9,393.2c11.2,3.1,22.3,5.5,33.1,7.3c2.9-10.4,5.4-21.4,7.4-32.8C352.2,376.8,338.6,385.4,324.9,393.2z"/>
<path class="st1" d="M397,344c-2.5,20.9-6.2,41-11,59.6c16.1,0.9,31.7,0.3,46.7-2c30.2-4.6,53.4-15.1,55.5-33.6
	c0.8-26.8-18.5-55.2-37.4-76.6C435.8,309.2,417.7,327.1,397,344z"/>
<path class="st1" d="M357.1,151.3c-14.1,3.4-28.4,8-42.9,13.7c17.8,7.8,35.2,16.5,51.7,25.8C363.6,176.7,360.6,163.5,357.1,151.3z"
	/>
<path class="st1" d="M194.6,333.4c16.7,10.6,34.7,20.5,53.6,30c13.6,6.8,27.1,12.7,40.4,17.9c23.9-12.2,47.7-26.9,70.5-43.2
	c3.9-2.8,7.7-5.6,11.5-8.5c2.5-26.7,3-54.7,1.5-82.6c-0.4-7.2-0.9-14.3-1.6-21.2c-24.6-15.2-51.8-29-79.9-40.5
	c-3.9-1.6-7.7-3.1-11.5-4.6c-16.2,8-32.4,17.1-48.7,27.1c-12.1,7.4-23.5,15.1-34.1,23c-1.9,17.6-2.9,35.8-3.2,54.5
	C192.7,301.9,193.3,318,194.6,333.4z"/>
<path class="st1" d="M400.2,305.3c12.2-10.9,23.1-21.8,32.5-32.6c-9.8-9.3-20.9-18.4-32.8-27.2c0,0.4,0,0.8,0.1,1.1
	C401.1,266.3,401.1,286,400.2,305.3z"/>
<path class="st1" d="M245.2,168.9c-12.2-3.7-24-6.7-35.4-9.1c-3.4,11.5-6.3,23.6-8.6,36.1c5-3.4,10.1-6.7,15.3-10
	C226,180,235.6,174.3,245.2,168.9z"/>
<path class="st1" d="M167.2,285.3c0.1-10.6,0.4-21.2,1-31.7c-12.3,11-23.3,22.4-33,34.2c9.9,9.6,20.8,18.7,32.7,27.5
	C167.4,305.3,167.1,295.4,167.2,285.3z"/>
<path class="st2" d="M432.8,272.7c6.5-7.5,12.3-14.8,17.3-22.1c-15.7-14.4-33.8-28.3-53.7-41.3c1.6,11.8,2.8,23.9,3.5,36.2
	C411.9,254.3,422.9,263.4,432.8,272.7z"/>
<path class="st2" d="M468.4,268.8c-5.2,7.4-11.1,15-17.5,22.6c18.8,21.3,38.2,49.8,37.4,76.6c-2.1,18.5-25.3,29.1-55.5,33.6
	c-15.1,2.3-30.7,2.9-46.7,2c-2.4,9.3-5.1,18.2-8,26.7c11.6,1.4,22.8,2.2,33.5,2.2c9.4,0,18.3-0.6,26.7-1.7
	c19.7-2.7,36.1-8.6,48.7-17.6c14.3-10.1,25.6-20.5,27.7-42.3C517.4,341.8,500.8,304.3,468.4,268.8z"/>
<path class="st3" d="M170.7,349c2.9,24.5,7.4,47.6,13.5,68.7c5.6-0.9,11-2,16-3.1c3.4-0.8,6.8-1.6,10.2-2.5
	c-4.9-14.3-8.7-29.5-11.5-45.6C189.2,360.9,179.7,355.1,170.7,349z"/>
<path class="st3" d="M167.9,315.2c8.5,6.3,17.4,12.3,26.7,18.2c-1.3-15.4-1.9-31.5-1.6-48.1c0.3-18.7,1.4-36.9,3.2-54.5
	c-10,7.4-19.3,15-28.1,22.8c-0.6,10.5-0.9,21.1-1,31.7C167.1,295.4,167.4,305.3,167.9,315.2z"/>
<path class="st3" d="M209.8,159.8c-8.8-1.8-17.3-3.2-25.4-4.2c-1.5,4.8-2.8,9.5-3.9,13.9c-3.9,15.4-6.9,31.5-9.1,48.1
	c9.5-7.5,19.4-14.8,29.8-21.8C203.5,183.4,206.4,171.4,209.8,159.8z"/>
<path class="st3" d="M246.5,86.5c0,0-10.4-13.3-14.3-29.7c-12.6,12.5-27.8,43.1-39.3,74c8.3,1,16.9,2.3,25.7,4
	C226,116.8,235.2,100.6,246.5,86.5z"/>
<path class="st4" d="M314.2,164.9c14.5-5.7,28.8-10.3,42.9-13.7c-2.5-8.6-5.2-16.6-8.1-24.1c-9.9,2.4-19.3,5-27.8,7.8
	c-13.7,4.5-27.5,10-41.3,16.4c7.5,2.6,15,5.5,22.5,8.6C306.3,161.5,310.3,163.2,314.2,164.9z"/>
<path class="st4" d="M279.1,180.6c-11.5-4.4-22.8-8.3-33.9-11.7c-9.7,5.4-19.3,11.1-28.7,17c-5.2,3.3-10.3,6.6-15.3,10
	c-2.1,11.2-3.7,22.9-5,34.8c10.7-7.9,22.1-15.6,34.1-23C246.7,197.8,262.9,188.6,279.1,180.6z"/>
<path class="st4" d="M135.2,287.7c9.7-11.8,20.7-23.2,33-34.2c0.7-12.1,1.8-24.1,3.3-35.8c-20.5,16.1-38.9,33.2-54.5,50.5
	C122.6,274.9,128.7,281.4,135.2,287.7z"/>
<path class="st4" d="M426.7,145.9c0,0,5.6-15.9,17.3-28c-14.9-3.3-42-1.1-69.8,3.9c3.1,7.8,5.9,16.1,8.5,24.7
	C397.8,144.6,412.5,144.3,426.7,145.9z"/>
<path class="st2" d="M365.9,190.7c-16.5-9.3-33.9-18-51.7-25.8c0,0,0,0,0,0c-3.9-1.7-7.9-3.4-11.9-5.1c-7.5-3.1-15-5.9-22.5-8.6
	c0,0-0.1,0-0.1,0.1c-20.9-7.3-41.5-12.8-61.1-16.5l0,0c-8.8-1.7-17.3-3-25.6-4c0,0,0,0,0,0c-23.2-2.7-44.2-2.7-61.6-0.3
	c-17.8,2.4-32.2,8.6-43,15c-3.1-1.1-6.4-1.7-9.8-1.7c-15.7,0-28.5,12.8-28.5,28.5s12.8,28.5,28.5,28.5s28.5-12.8,28.5-28.5
	c0-2.8-0.4-5.4-1.1-8c9.1-3.7,20.4-7.2,32.8-8.9c13.2-1.9,28.6-1.7,45.6,0.3c0,0,0,0,0,0c8.1,1,16.6,2.4,25.4,4.2l0,0
	c11.4,2.3,23.2,5.3,35.4,9c0,0,0.1,0,0.1-0.1c11.1,3.5,22.3,7.4,33.8,11.8c0,0,0,0,0,0c0,0,0,0,0,0c3.8,1.5,7.7,3,11.5,4.6
	c28.2,11.6,55.3,25.3,79.9,40.5C369.4,213.6,367.8,201.9,365.9,190.7z"/>
<path class="st2" d="M248.2,363.4c-18.9-9.4-36.9-19.4-53.6-30c-9.3-5.9-18.3-11.9-26.7-18.2c-11.8-8.8-22.8-17.9-32.7-27.5
	c-6.5-6.3-12.5-12.7-18.1-19.4c0,0,0,0,0,0c-10.3-12.3-18.8-25.2-25.3-38.7c0,0-16.4,3.7-32.9,0.2c5.2,14.7,21.9,37,41.4,58.3
	c0,0,0,0,0,0c6.4,7,13,13.8,19.6,20.1c6.3,6,12.5,11.7,18.5,16.7c10.1,8.4,20.9,16.4,32.3,24.1c9.1,6.1,18.5,11.9,28.2,17.5
	c12.3,7.1,25.1,13.9,38.2,20.2c6.7,3.2,13.4,6.3,20.1,9.2c10.4-4.4,20.9-9.3,31.4-14.7C275.3,376.1,261.9,370.2,248.2,363.4z"/>
<path class="st4" d="M497.6,140.8c-13.4-8.4-30.9-4.3-39.3,9.1c-8.4,13.4-4.3,30.9,9.1,39.3c2.3,1.5,4.8,2.5,7.4,3.3
	c-1.7,9.6-4.7,21.1-9.8,32.6c-3.6,8.2-8.9,16.7-15,25.5c-5,7.2-10.8,14.6-17.3,22.1c0,0,0,0,0.1,0.1c-9.4,10.8-20.3,21.7-32.5,32.5
	c-0.6,13.1-1.7,26.1-3.2,38.8c20.7-16.9,38.8-34.9,53.8-52.6c5.6-6.3,12.2-15.3,17.4-22.7c9.1-12.9,16.4-25.3,21.6-36.9
	c7.4-16.4,9.8-31.9,10.1-44.4c2.6-2,4.8-4.5,6.7-7.4C515,166.7,511,149.2,497.6,140.8z"/>
<path class="st2" d="M293.3,410c19.2,6.7,38.2,11.9,56.4,15.7c0.5-1.2,0.9-2.4,1.3-3.6c2.5-6.9,4.8-14.1,6.9-21.6
	c-10.9-1.8-21.9-4.2-33.1-7.3C314.4,399.2,303.9,404.8,293.3,410z"/>
<path class="st5" d="M137.2,170.5l100.2,272.6c2.1,5.6,7.4,9.4,13.5,9.4h76.3c2.8,0,4.8-2.8,3.8-5.5l-97.4-267.7
	c-1.6-4.4-5.5-7.4-10.1-7.9l-80.7-8.1C138.9,162.9,135.9,166.8,137.2,170.5z"/>
<path class="st4" d="M370.6,329.7c-3.8,2.7-7.6,5.6-11.5,8.4c-22.7,16.3-46.6,31-70.5,43.2c0,0,0,0,0.1,0
	c-10.5,5.3-21.3,10.3-31.5,14.7c-15.9,6.7-31.6,12.1-46.7,16.1c-3.4,0.9-6.9,1.7-10.2,2.5c-5,1.1-10.3,2.2-16,3.1c0,0,0,0,0,0
	c-27.9,4.7-62.2,6-84.4-8.9c-14.6-11.6-11.3-36.8,0.9-64.9c5.3-12.2,11.9-24.2,19.6-35.8c-6.6-6.4-13.2-13.2-19.6-20.1
	c-5.5,7.2-10.5,14.3-15,21.4c-5,8-9.2,15.8-12.7,23.6c-8.1,18.1-11.8,35.2-10.9,50.6c1,17.5,3.9,32.5,21.2,45.9
	c23,17.6,63,23.7,109.6,15.3c4.4-0.8,9.1-1.9,13.6-3c4.7-1.1,12.1-3,14.4-3.6c23.2-6.6,47.6-16.2,72.1-28.1c0,0,0,0,0,0
	c0.1,0,0.1-0.1,0.2-0.1c0,0,0.1,0,0.1-0.1c0,0,0,0,0,0c10.4-5.1,21.2-10.8,31.5-16.7c0,0,0,0-0.1,0c13.7-7.9,27.3-16.4,40.6-25.5
	C367.6,355.5,369.3,342.7,370.6,329.7z"/>
<path class="st3" d="M400,246.7c0-0.1,0-0.2,0-0.3c0,0,0,0,0,0c0,0,0-0.1,0-0.1c0-0.1,0-0.1,0-0.2c-0.7-12.2-2-24.9-3.5-36.4
	c0,0,0,0,0,0c0,0,0-0.1,0-0.1c0-0.1,0-0.1,0-0.2c0,0,0,0,0,0c-3-21.9-8-44-13.6-62.8c0,0,0,0,0,0c0-0.1,0-0.2-0.1-0.2
	c-0.1-0.3-0.2-0.5-0.2-0.8c0,0,0,0,0,0c-2.5-8.3-5.3-16.2-8.2-23.7c-6.4-16.3-13.6-30.6-21.3-42.1c-9.8-15-21.6-25.4-32-32.4
	c-0.3-3.2-1.2-6.5-2.7-9.6c-6.8-14.2-23.8-20.2-38-13.5s-20.2,23.8-13.4,38s23.8,20.2,38,13.5c2.5-1.2,4.7-2.7,6.7-4.5
	c7.2,6.6,15.3,15.3,22.2,25.8c5.6,8.5,10.7,18.6,15.2,30.1c2.9,7.2,5.5,14.9,7.8,23.2c3.5,12.2,6.8,26.9,9.2,40.8
	c1.9,10.9,3.4,22.9,4.5,34.7c0,0,0,0,0,0c0.7,6.9,1.2,14,1.6,21.2c1.5,27.9,1,55.8-1.5,82.5c0,0,0,0,0,0c-1.2,13.1-3,25.9-5.2,38.2
	c-2.1,11.3-4.6,22.6-7.5,33c-2.1,7.4-4.4,14.6-6.8,21.4c-0.4,1.2-1.1,2.7-1.5,3.9c-10.6,28.2-29.4,65.6-57.5,78
	c-17.6,6-37.1-10.3-54.2-35.6c-6.3-9.4-12-19.4-17-30.1c-4.8,1.4-9.6,2.6-14.4,3.7c-4.5,1-8.9,2-13.3,2.8c2.4,6.1,4.9,12,7.6,17.7
	c4,8.5,8.4,16.3,13,23.4c10.9,16.6,23.3,28.9,36.8,36.4c15.3,8.5,29.5,14.3,50.1,6.8c29.9-10.8,58.9-46.5,76.8-97.5
	c0.1-0.2,0.2-0.5,0.2-0.7c0,0,0,0,0,0c0,0,0,0,0,0c0.1-0.1,0.1-0.3,0.1-0.4c0,0,0,0,0,0c2.9-8.2,5.6-17.2,7.9-26.1c0,0,0,0,0,0
	c0-0.1,0-0.1,0.1-0.2c0-0.1,0.1-0.3,0.1-0.5c0,0,0,0,0,0c4.7-18.4,8.5-39,11-59.7c1.5-12.7,2.6-25.5,3.2-38.7c0,0,0,0,0,0
	C401.1,286,401.1,266.3,400,246.7z"/>
<path class="st0" d="M976.7,170.5L874.5,448.6c-0.9,2.3-3.1,3.9-5.6,3.9h-74.7c-6.5,0-10.9-6.4-8.7-12.5l94.9-260.7
	c1.6-4.4,5.5-7.4,10.1-7.9l80.7-8.1C975.1,162.9,978.1,166.8,976.7,170.5z"/>
<path class="st1" d="M679.9,324.9c-6-5-12.2-10.6-18.5-16.7c-7.8,11.6-14.4,23.5-19.6,35.8c-12.1,28.1-15.4,53.3-0.9,64.9
	c22.3,14.9,56.7,13.5,84.8,8.8c-6.1-21.1-10.6-44.3-13.5-68.7C700.8,341.3,690,333.3,679.9,324.9z"/>
<path class="st1" d="M778.6,386.7c-13.1-6.3-25.9-13.1-38.2-20.2c2.8,16.1,6.7,31.3,11.5,45.6c15.1-4,30.9-9.5,46.9-16.2
	C792,393,785.3,389.9,778.6,386.7z"/>
<path class="st1" d="M762.4,438.2c5,10.7,10.6,20.7,17,30.1c17.1,25.3,36.6,41.7,54.2,35.6c28.2-12.4,47-49.9,57.7-78.3
	c-18.3-3.8-37.2-9-56.4-15.7C810.2,422,785.7,431.6,762.4,438.2z"/>
<path class="st1" d="M866.4,393.2c11.2,3.1,22.3,5.5,33.1,7.3c2.9-10.4,5.4-21.4,7.4-32.8C893.7,376.8,880.1,385.4,866.4,393.2z"/>
<path class="st1" d="M938.5,344c-2.5,20.9-6.2,41-11,59.6c16.1,0.9,31.7,0.3,46.7-2c30.2-4.6,53.4-15.1,55.5-33.6
	c0.8-26.8-18.5-55.2-37.4-76.6C977.3,309.2,959.2,327.1,938.5,344z"/>
<path class="st1" d="M898.6,151.3c-14.1,3.4-28.4,8-42.9,13.7c17.8,7.8,35.2,16.5,51.7,25.8C905.1,176.7,902.1,163.5,898.6,151.3z"
	/>
<path class="st1" d="M736.1,333.4c16.7,10.6,34.7,20.5,53.6,30c13.6,6.8,27.1,12.7,40.4,17.9c23.9-12.2,47.7-26.9,70.5-43.2
	c3.9-2.8,7.7-5.6,11.5-8.5c2.5-26.7,3-54.7,1.5-82.6c-0.4-7.2-0.9-14.3-1.6-21.2c-24.6-15.2-51.8-29-79.9-40.5
	c-3.9-1.6-7.7-3.1-11.5-4.6c-16.2,8-32.4,17.1-48.7,27.1c-12.1,7.4-23.5,15.1-34.1,23c-1.9,17.6-2.9,35.8-3.2,54.5
	C734.2,301.9,734.8,318,736.1,333.4z"/>
<path class="st1" d="M941.7,305.3c12.2-10.9,23.1-21.8,32.5-32.6c-9.8-9.3-20.9-18.4-32.8-27.2c0,0.4,0,0.8,0.1,1.1
	C942.6,266.3,942.6,286,941.7,305.3z"/>
<path class="st1" d="M786.7,168.9c-12.2-3.7-24-6.7-35.4-9.1c-3.4,11.5-6.3,23.6-8.6,36.1c5-3.4,10.1-6.7,15.3-10
	C767.5,180,777.1,174.3,786.7,168.9z"/>
<path class="st1" d="M708.7,285.3c0.1-10.6,0.4-21.2,1-31.7c-12.3,11-23.3,22.4-33,34.2c9.9,9.6,20.8,18.7,32.7,27.5
	C708.9,305.3,708.6,295.4,708.7,285.3z"/>
<path class="st2" d="M974.3,272.7c6.5-7.5,12.3-14.8,17.3-22.1c-15.7-14.4-33.8-28.3-53.7-41.3c1.6,11.8,2.8,23.9,3.5,36.2
	C953.4,254.3,964.4,263.4,974.3,272.7z"/>
<path class="st2" d="M1009.9,268.8c-5.2,7.4-11.1,15-17.5,22.6c18.8,21.3,38.2,49.8,37.4,76.6c-2.1,18.5-25.3,29.1-55.5,33.6
	c-15.1,2.3-30.7,2.9-46.7,2c-2.4,9.3-5.1,18.2-8,26.7c11.6,1.4,22.8,2.2,33.5,2.2c9.4,0,18.3-0.6,26.7-1.7
	c19.7-2.7,36.1-8.6,48.7-17.6c14.3-10.1,25.6-20.5,27.7-42.3C1058.9,341.8,1042.3,304.3,1009.9,268.8z"/>
<path class="st3" d="M712.2,349c2.9,24.5,7.4,47.6,13.5,68.7c5.6-0.9,11-2,16-3.1c3.4-0.8,6.8-1.6,10.2-2.5
	c-4.9-14.3-8.7-29.5-11.5-45.6C730.7,360.9,721.2,355.1,712.2,349z"/>
<path class="st3" d="M709.4,315.2c8.5,6.3,17.4,12.3,26.7,18.2c-1.3-15.4-1.9-31.5-1.6-48.1c0.3-18.7,1.4-36.9,3.2-54.5
	c-10,7.4-19.3,15-28.1,22.8c-0.6,10.5-0.9,21.1-1,31.7C708.6,295.4,708.9,305.3,709.4,315.2z"/>
<path class="st3" d="M751.3,159.8c-8.8-1.8-17.3-3.2-25.4-4.2c-1.5,4.8-2.8,9.5-3.9,13.9c-3.9,15.4-6.9,31.5-9.1,48.1
	c9.5-7.5,19.4-14.8,29.8-21.8C745,183.4,747.9,171.4,751.3,159.8z"/>
<path class="st3" d="M788,86.5c0,0-10.4-13.3-14.3-29.7c-12.6,12.5-27.8,43.1-39.3,74c8.3,1,16.9,2.3,25.7,4
	C767.5,116.8,776.7,100.6,788,86.5z"/>
<path class="st4" d="M855.7,164.9c14.5-5.7,28.8-10.3,42.9-13.7c-2.5-8.6-5.2-16.6-8.1-24.1c-9.9,2.4-19.3,5-27.8,7.8
	c-13.7,4.5-27.5,10-41.3,16.4c7.5,2.6,15,5.5,22.5,8.6C847.8,161.5,851.8,163.2,855.7,164.9z"/>
<g>
	<path class="st4" d="M742.7,195.9c5-3.4,10.1-6.7,15.3-10c9.4-5.9,19-11.6,28.7-17c11.1,3.4,22.4,7.3,33.9,11.7
		c-16.2,8-32.4,17.2-48.8,27.1c-12,7.4-23.6,14.8-34.1,23c-8.1,5.5-28,22.8-28,22.8c-12.3,11-23.3,22.4-33,34.2
		c-6.5-6.3-12.6-12.8-18.2-19.5c15.6-17.3,33.7-34.7,54.5-50.5C721.8,210.3,742.7,195.9,742.7,195.9z"/>
</g>
<path class="st4" d="M968.2,145.9c0,0,5.6-15.9,17.3-28c-14.9-3.3-42-1.1-69.8,3.9c3.1,7.8,5.9,16.1,8.5,24.7
	C939.3,144.6,954,144.3,968.2,145.9z"/>
<path class="st2" d="M907.4,190.7c-16.5-9.3-33.9-18-51.7-25.8c0,0,0,0,0,0c-3.9-1.7-7.9-3.4-11.9-5.1c-7.5-3.1-15-5.9-22.5-8.6
	c0,0-0.1,0-0.1,0.1c-20.9-7.3-41.5-12.8-61.1-16.5l0,0c-8.8-1.7-17.3-3-25.6-4c0,0,0,0,0,0c-23.2-2.7-44.2-2.7-61.6-0.3
	c-17.8,2.4-32.2,8.6-43,15c-3.1-1.1-6.4-1.7-9.8-1.7c-15.7,0-28.5,12.8-28.5,28.5s12.8,28.5,28.5,28.5s28.5-12.8,28.5-28.5
	c0-2.8-0.4-5.4-1.1-8c9.1-3.7,20.4-7.2,32.8-8.9c13.2-1.9,28.6-1.7,45.6,0.3c0,0,0,0,0,0c8.1,1,16.6,2.4,25.4,4.2l0,0
	c11.4,2.3,23.2,5.3,35.4,9c0,0,0.1,0,0.1-0.1c11.1,3.5,22.3,7.4,33.8,11.8c0,0,0,0,0,0c0,0,0,0,0,0c3.8,1.5,7.7,3,11.5,4.6
	c28.2,11.6,55.3,25.3,79.9,40.5C910.9,213.6,909.3,201.9,907.4,190.7z"/>
<path class="st2" d="M789.7,363.4c-18.9-9.4-36.9-19.4-53.6-30c-9.3-5.9-18.3-11.9-26.7-18.2c-11.8-8.8-22.8-17.9-32.7-27.5
	c-6.5-6.3-12.5-12.7-18.1-19.4c0,0,0,0,0,0c-10.3-12.3-18.8-25.2-25.3-38.7c0,0-16.4,3.7-32.9,0.2c5.2,14.7,21.9,37,41.4,58.3
	c0,0,0,0,0,0c6.4,7,13,13.8,19.6,20.1c6.3,6,12.5,11.7,18.5,16.7c10.1,8.4,20.9,16.4,32.3,24.1c9.1,6.1,18.5,11.9,28.2,17.5
	c12.3,7.1,25.1,13.9,38.2,20.2c6.7,3.2,13.4,6.3,20.1,9.2c10.4-4.4,20.9-9.3,31.4-14.7C816.8,376.1,803.4,370.2,789.7,363.4z"/>
<path class="st4" d="M1039.1,140.8c-13.4-8.4-30.9-4.3-39.3,9.1c-8.4,13.4-4.3,30.9,9.1,39.3c2.3,1.5,4.8,2.5,7.4,3.3
	c-1.7,9.6-4.7,21.1-9.8,32.6c-3.6,8.2-8.9,16.7-15,25.5c-5,7.2-10.8,14.6-17.3,22.1c0,0,0,0,0.1,0.1c-9.4,10.8-20.3,21.7-32.5,32.5
	c-0.6,13.1-1.7,26.1-3.2,38.8c20.7-16.9,38.8-34.9,53.8-52.6c5.6-6.3,12.2-15.3,17.4-22.7c9.1-12.9,16.4-25.3,21.6-36.9
	c7.4-16.4,9.8-31.9,10.1-44.4c2.6-2,4.8-4.5,6.7-7.4C1056.5,166.7,1052.5,149.2,1039.1,140.8z"/>
<path class="st2" d="M834.8,410c19.2,6.7,38.2,11.9,56.4,15.7c0.5-1.2,0.9-2.4,1.3-3.6c2.5-6.9,4.8-14.1,6.9-21.6
	c-10.9-1.8-21.9-4.2-33.1-7.3C855.9,399.2,845.4,404.8,834.8,410z"/>
<path class="st5" d="M678.7,170.5l100.2,272.6c2.1,5.6,7.4,9.4,13.5,9.4h76.3c2.8,0,4.8-2.8,3.8-5.5l-97.4-267.7
	c-1.6-4.4-5.5-7.4-10.1-7.9l-80.7-8.1C680.4,162.9,677.4,166.8,678.7,170.5z"/>
<path class="st4" d="M912.1,329.7c-3.8,2.7-7.6,5.6-11.5,8.4c-22.7,16.3-46.6,31-70.5,43.2c0,0,0,0,0.1,0
	c-10.5,5.3-21.3,10.3-31.5,14.7c-15.9,6.7-31.6,12.1-46.7,16.1c-3.4,0.9-6.9,1.7-10.2,2.5c-5,1.1-10.3,2.2-16,3.1c0,0,0,0,0,0
	c-27.9,4.7-62.2,6-84.4-8.9c-14.6-11.6-11.3-36.8,0.9-64.9c5.3-12.2,11.9-24.2,19.6-35.8c-6.6-6.4-13.2-13.2-19.6-20.1
	c-5.5,7.2-10.5,14.3-15,21.4c-5,8-9.2,15.8-12.7,23.6c-8.1,18.1-11.8,35.2-10.9,50.6c1,17.5,3.9,32.5,21.2,45.9
	c23,17.6,63,23.7,109.6,15.3c4.4-0.8,9.1-1.9,13.6-3c4.7-1.1,12.1-3,14.4-3.6c23.2-6.6,47.6-16.2,72.1-28.1c0,0,0,0,0,0
	c0.1,0,0.1-0.1,0.2-0.1c0,0,0.1,0,0.1-0.1c0,0,0,0,0,0c10.4-5.1,21.2-10.8,31.5-16.7c0,0,0,0-0.1,0c13.7-7.9,27.3-16.4,40.6-25.5
	C909.1,355.5,910.8,342.7,912.1,329.7z"/>
<path class="st3" d="M941.5,246.7c0-0.1,0-0.2,0-0.3c0,0,0,0,0,0c0,0,0-0.1,0-0.1c0-0.1,0-0.1,0-0.2c-0.7-12.2-2-24.9-3.5-36.4
	c0,0,0,0,0,0c0,0,0-0.1,0-0.1c0-0.1,0-0.1,0-0.2c0,0,0,0,0,0c-3-21.9-8-44-13.6-62.8c0,0,0,0,0,0c0-0.1,0-0.2-0.1-0.2
	c-0.1-0.3-0.2-0.5-0.2-0.8c0,0,0,0,0,0c-2.5-8.3-5.3-16.2-8.2-23.7c-6.4-16.3-13.6-30.6-21.3-42.1c-9.8-15-21.6-25.4-32-32.4
	c-0.3-3.2-1.2-6.5-2.7-9.6c-6.8-14.2-23.8-20.2-38-13.5s-20.2,23.8-13.4,38s23.8,20.2,38,13.5c2.5-1.2,4.7-2.7,6.7-4.5
	c7.2,6.6,15.3,15.3,22.2,25.8c5.6,8.5,10.7,18.6,15.2,30.1c2.9,7.2,5.5,14.9,7.8,23.2c3.5,12.2,6.8,26.9,9.2,40.8
	c1.9,10.9,3.4,22.9,4.5,34.7c0,0,0,0,0,0c0.7,6.9,1.2,14,1.6,21.2c1.5,27.9,1,55.8-1.5,82.5c0,0,0,0,0,0c-1.2,13.1-3,25.9-5.2,38.2
	c-2.1,11.3-4.6,22.6-7.5,33c-2.1,7.4-4.4,14.6-6.8,21.4c-0.4,1.2-1.1,2.7-1.5,3.9c-10.6,28.2-29.4,65.6-57.5,78
	c-17.6,6-37.1-10.3-54.2-35.6c-6.3-9.4-12-19.4-17-30.1c-4.8,1.4-9.6,2.6-14.4,3.7c-4.5,1-8.9,2-13.3,2.8c2.4,6.1,4.9,12,7.6,17.7
	c4,8.5,8.4,16.3,13,23.4c10.9,16.6,23.3,28.9,36.8,36.4c15.3,8.5,29.5,14.3,50.1,6.8c29.9-10.8,58.9-46.5,76.8-97.5
	c0.1-0.2,0.2-0.5,0.2-0.7c0,0,0,0,0,0c0,0,0,0,0,0c0.1-0.1,0.1-0.3,0.1-0.4c0,0,0,0,0,0c2.9-8.2,5.6-17.2,7.9-26.1c0,0,0,0,0,0
	c0-0.1,0-0.1,0.1-0.2c0-0.1,0.1-0.3,0.1-0.5c0,0,0,0,0,0c4.7-18.4,8.5-39,11-59.7c1.5-12.7,2.6-25.5,3.2-38.7c0,0,0,0,0,0
	C942.6,286,942.6,266.3,941.5,246.7z"/>
<path class="st6" d="M1506.3,166.2l-102.2,278.1c-0.9,2.3-3.1,3.9-5.6,3.9h-74.7c-6.5,0-10.9-6.4-8.7-12.5L1410,175
	c1.6-4.4,5.5-7.4,10.1-7.9l80.7-8.1C1504.7,158.6,1507.7,162.5,1506.3,166.2z"/>
<path class="st6" d="M1503.9,268.4c6.5-7.5,12.3-14.8,17.3-22.1c-15.7-14.4-33.8-28.3-53.7-41.3c1.6,11.8,2.8,23.9,3.5,36.2
	C1483,250,1494,259.1,1503.9,268.4z"/>
<path class="st6" d="M1539.5,264.5c-5.2,7.4-11.1,15-17.5,22.6c18.8,21.3,38.2,49.8,37.4,76.6c-2.1,18.5-25.3,29.1-55.5,33.6
	c-15.1,2.3-30.7,2.9-46.7,2c-2.4,9.3-5.1,18.2-8,26.7c11.6,1.4,22.8,2.2,33.5,2.2c9.4,0,18.3-0.6,26.7-1.7
	c19.7-2.7,36.1-8.6,48.7-17.6c14.3-10.1,25.6-20.5,27.7-42.3C1588.5,337.5,1571.9,300,1539.5,264.5z"/>
<path class="st6" d="M1241.8,344.7c2.9,24.5,7.4,47.6,13.5,68.7c5.6-0.9,11-2,16-3.1c3.4-0.8,6.8-1.6,10.2-2.5
	c-4.9-14.3-8.7-29.5-11.5-45.6C1260.3,356.6,1250.8,350.8,1241.8,344.7z"/>
<path class="st6" d="M1239,310.9c8.5,6.3,17.4,12.3,26.7,18.2c-1.3-15.4-1.9-31.5-1.6-48.1c0.3-18.7,1.4-36.9,3.2-54.5
	c-10,7.4-19.3,15-28.1,22.8c-0.6,10.5-0.9,21.1-1,31.7C1238.2,291.1,1238.5,301,1239,310.9z"/>
<path class="st6" d="M1280.9,155.5c-8.8-1.8-17.3-3.2-25.4-4.2c-1.5,4.8-2.8,9.5-3.9,13.9c-3.9,15.4-6.9,31.5-9.1,48.1
	c9.5-7.5,19.4-14.8,29.8-21.8C1274.6,179.1,1277.5,167.1,1280.9,155.5z"/>
<path class="st6" d="M1317.6,82.2c0,0-10.4-13.3-14.3-29.7c-12.6,12.5-27.8,43.1-39.3,74c8.3,1,16.9,2.3,25.7,4
	C1297.1,112.5,1306.3,96.3,1317.6,82.2z"/>
<path class="st6" d="M1385.3,160.6c14.5-5.7,28.8-10.3,42.9-13.7c-2.5-8.6-5.2-16.6-8.1-24.1c-9.9,2.4-19.3,5-27.8,7.8
	c-13.7,4.5-27.5,10-41.3,16.4c7.5,2.6,15,5.5,22.5,8.6C1377.4,157.2,1381.4,158.9,1385.3,160.6z"/>
<path class="st6" d="M1350.2,176.3c-11.5-4.4-22.8-8.3-33.9-11.7c-9.7,5.4-19.3,11.1-28.7,17c-5.2,3.3-10.3,6.6-15.3,10
	c-2.1,11.2-3.7,22.9-5,34.8c10.7-7.9,22.1-15.6,34.1-23C1317.8,193.5,1334,184.3,1350.2,176.3z"/>
<path class="st6" d="M1206.3,283.4c9.7-11.8,20.7-23.2,33-34.2c0.7-12.1,1.8-24.1,3.3-35.8c-20.5,16.1-38.9,33.2-54.5,50.5
	C1193.7,270.6,1199.8,277.1,1206.3,283.4z"/>
<path class="st6" d="M1497.8,141.6c0,0,5.6-15.9,17.3-28c-14.9-3.3-42-1.1-69.8,3.9c3.1,7.8,5.9,16.1,8.5,24.7
	C1468.9,140.3,1483.6,140,1497.8,141.6z"/>
<path class="st6" d="M1437,186.4c-16.5-9.3-33.9-18-51.7-25.8c0,0,0,0,0,0c-3.9-1.7-7.9-3.4-11.9-5.1c-7.5-3.1-15-5.9-22.5-8.6
	c0,0-0.1,0-0.1,0.1c-20.9-7.3-41.5-12.8-61.1-16.5l0,0c-8.8-1.7-17.3-3-25.6-4c0,0,0,0,0,0c-23.2-2.7-44.2-2.7-61.6-0.3
	c-17.8,2.4-32.2,8.6-43,15c-3.1-1.1-6.4-1.7-9.8-1.7c-15.7,0-28.5,12.8-28.5,28.5s12.8,28.5,28.5,28.5c15.7,0,28.5-12.8,28.5-28.5
	c0-2.8-0.4-5.4-1.1-8c9.1-3.7,20.4-7.2,32.8-8.9c13.2-1.9,28.6-1.7,45.6,0.3c0,0,0,0,0,0c8.1,1,16.6,2.4,25.4,4.2l0,0
	c11.4,2.3,23.2,5.3,35.4,9c0,0,0.1,0,0.1-0.1c11.1,3.5,22.3,7.4,33.8,11.8c0,0,0,0,0,0c0,0,0,0,0,0c3.8,1.5,7.7,3,11.5,4.6
	c28.2,11.6,55.3,25.3,79.9,40.5C1440.5,209.3,1438.9,197.6,1437,186.4z"/>
<path class="st6" d="M1319.3,359.1c-18.9-9.4-36.9-19.4-53.6-30c-9.3-5.9-18.3-11.9-26.7-18.2c-11.8-8.8-22.8-17.9-32.7-27.5
	c-6.5-6.3-12.5-12.7-18.1-19.4c0,0,0,0,0,0c-10.3-12.3-18.8-25.2-25.3-38.7c0,0-16.4,3.7-32.9,0.2c5.2,14.7,21.9,37,41.4,58.3
	c0,0,0,0,0,0c6.4,7,13,13.8,19.6,20.1c6.3,6,12.5,11.7,18.5,16.7c10.1,8.4,20.9,16.4,32.3,24.1c9.1,6.1,18.5,11.9,28.2,17.5
	c12.3,7.1,25.1,13.9,38.2,20.2c6.7,3.2,13.4,6.3,20.1,9.2c10.4-4.4,20.9-9.3,31.4-14.7C1346.4,371.8,1333,365.9,1319.3,359.1z"/>
<path class="st6" d="M1568.7,136.5c-13.4-8.4-30.9-4.3-39.3,9.1c-8.4,13.4-4.3,30.9,9.1,39.3c2.3,1.5,4.8,2.5,7.4,3.3
	c-1.7,9.6-4.7,21.1-9.8,32.6c-3.6,8.2-8.9,16.7-15,25.5c-5,7.2-10.8,14.6-17.3,22.1c0,0,0,0,0.1,0.1c-9.4,10.8-20.3,21.7-32.5,32.5
	c-0.6,13.1-1.7,26.1-3.2,38.8c20.7-16.9,38.8-34.9,53.8-52.6c5.6-6.3,12.2-15.3,17.4-22.7c9.1-12.9,16.4-25.3,21.6-36.9
	c7.4-16.4,9.8-31.9,10.1-44.4c2.6-2,4.8-4.5,6.7-7.4C1586.1,162.4,1582.1,144.9,1568.7,136.5z"/>
<path class="st6" d="M1364.4,405.7c19.2,6.7,38.2,11.9,56.4,15.7c0.5-1.2,0.9-2.4,1.3-3.6c2.5-6.9,4.8-14.1,6.9-21.6
	c-10.9-1.8-21.9-4.2-33.1-7.3C1385.5,394.9,1375,400.5,1364.4,405.7z"/>
<path class="st6" d="M1208.3,166.2l100.2,272.6c2.1,5.6,7.4,9.4,13.5,9.4h76.3c2.8,0,4.8-2.8,3.8-5.5L1304.7,175
	c-1.6-4.4-5.5-7.4-10.1-7.9l-80.7-8.1C1210,158.6,1207,162.5,1208.3,166.2z"/>
<path class="st6" d="M1441.7,325.4c-3.8,2.7-7.6,5.6-11.5,8.4c-22.7,16.3-46.6,31-70.5,43.2c0,0,0,0,0.1,0
	c-10.5,5.3-21.3,10.3-31.5,14.7c-15.9,6.7-31.6,12.1-46.7,16.1c-3.4,0.9-6.9,1.7-10.2,2.5c-5,1.1-10.3,2.2-16,3.1c0,0,0,0,0,0
	c-27.9,4.7-62.2,6-84.4-8.9c-14.6-11.6-11.3-36.8,0.9-64.9c5.3-12.2,11.9-24.2,19.6-35.8c-6.6-6.4-13.2-13.2-19.6-20.1
	c-5.5,7.2-10.5,14.3-15,21.4c-5,8-9.2,15.8-12.7,23.6c-8.1,18.1-11.8,35.2-10.9,50.6c1,17.5,3.9,32.5,21.2,45.9
	c23,17.6,63,23.7,109.6,15.3c4.4-0.8,9.1-1.9,13.6-3c4.7-1.1,12.1-3,14.4-3.6c23.2-6.6,47.6-16.2,72.1-28.1c0,0,0,0,0,0
	c0.1,0,0.1-0.1,0.2-0.1c0,0,0.1,0,0.1-0.1c0,0,0,0,0,0c10.4-5.1,21.2-10.8,31.5-16.7c0,0,0,0-0.1,0c13.7-7.9,27.3-16.4,40.6-25.5
	C1438.7,351.2,1440.4,338.4,1441.7,325.4z"/>
<path class="st6" d="M1471.1,242.4c0-0.1,0-0.2,0-0.3c0,0,0,0,0,0c0,0,0-0.1,0-0.1c0-0.1,0-0.1,0-0.2c-0.7-12.2-2-24.9-3.5-36.4
	c0,0,0,0,0,0c0,0,0-0.1,0-0.1c0-0.1,0-0.1,0-0.2c0,0,0,0,0,0c-3-21.9-8-44-13.6-62.8c0,0,0,0,0,0c0-0.1,0-0.2-0.1-0.2
	c-0.1-0.3-0.2-0.5-0.2-0.8c0,0,0,0,0,0c-2.5-8.3-5.3-16.2-8.2-23.7c-6.4-16.3-13.6-30.6-21.3-42.1c-9.8-15-21.6-25.4-32-32.4
	c-0.3-3.2-1.2-6.5-2.7-9.6c-6.8-14.2-23.8-20.2-38-13.5c-14.2,6.7-20.2,23.8-13.4,38c6.8,14.2,23.8,20.2,38,13.5
	c2.5-1.2,4.7-2.7,6.7-4.5c7.2,6.6,15.3,15.3,22.2,25.8c5.6,8.5,10.7,18.6,15.2,30.1c2.9,7.2,5.5,14.9,7.8,23.2
	c3.5,12.2,6.8,26.9,9.2,40.8c1.9,10.9,3.4,22.9,4.5,34.7c0,0,0,0,0,0c0.7,6.9,1.2,14,1.6,21.2c1.5,27.9,1,55.8-1.5,82.5c0,0,0,0,0,0
	c-1.2,13.1-3,25.9-5.2,38.2c-2.1,11.3-4.6,22.6-7.5,33c-2.1,7.4-4.4,14.6-6.8,21.4c-0.4,1.2-1.1,2.7-1.5,3.9
	c-10.6,28.2-29.4,65.6-57.5,78c-17.6,6-37.1-10.3-54.2-35.6c-6.3-9.4-12-19.4-17-30.1c-4.8,1.4-9.6,2.6-14.4,3.7
	c-4.5,1-8.9,2-13.3,2.8c2.4,6.1,4.9,12,7.6,17.7c4,8.5,8.4,16.3,13,23.4c10.9,16.6,23.3,28.9,36.8,36.4c15.3,8.5,29.5,14.3,50.1,6.8
	c29.9-10.8,58.9-46.5,76.8-97.5c0.1-0.2,0.2-0.5,0.2-0.7c0,0,0,0,0,0c0,0,0,0,0,0c0.1-0.1,0.1-0.3,0.1-0.4c0,0,0,0,0,0
	c2.9-8.2,5.6-17.2,7.9-26.1c0,0,0,0,0,0c0-0.1,0-0.1,0.1-0.2c0-0.1,0.1-0.3,0.1-0.5c0,0,0,0,0,0c4.7-18.4,8.5-39,11-59.7
	c1.5-12.7,2.6-25.5,3.2-38.7c0,0,0,0,0,0C1472.2,281.7,1472.2,262,1471.1,242.4z"/>
</svg>
